<svg width="24" height="25" viewBox="0 0 24 25" fill="none" xmlns="http://www.w3.org/2000/svg">
<path d="M12 23.85C5.45543 23.85 0.15 18.5446 0.15 12C0.15 5.45543 5.45543 0.15 12 0.15C18.5446 0.15 23.85 5.45543 23.85 12C23.85 18.5446 18.5446 23.85 12 23.85Z" fill="#9DC3BC" stroke="#555555" stroke-width="0.3"/>
<path d="M0.528409 2.45454H7.35369L11.7571 11.6136H11.9332L16.3366 2.45454H23.1619L14.8835 17.9105V25H8.80682V17.9105L0.528409 2.45454Z" fill="#E6DFCD"/>
<path d="M0.528409 2.45454V2.15454H0.027403L0.263954 2.59619L0.528409 2.45454ZM7.35369 2.45454L7.62407 2.32456L7.54233 2.15454H7.35369V2.45454ZM11.7571 11.6136L11.4867 11.7436L11.5685 11.9136H11.7571V11.6136ZM11.9332 11.6136V11.9136H12.1219L12.2036 11.7436L11.9332 11.6136ZM16.3366 2.45454V2.15454H16.148L16.0663 2.32456L16.3366 2.45454ZM23.1619 2.45454L23.4264 2.59619L23.6629 2.15454H23.1619V2.45454ZM14.8835 17.9105L14.6191 17.7689L14.5835 17.8352V17.9105H14.8835ZM14.8835 25V25.3H15.1835V25H14.8835ZM8.80682 25H8.50682V25.3H8.80682V25ZM8.80682 17.9105H9.10682V17.8352L9.07127 17.7689L8.80682 17.9105ZM0.528409 2.75454H7.35369V2.15454H0.528409V2.75454ZM7.08332 2.58453L11.4867 11.7436L12.0275 11.4836L7.62407 2.32456L7.08332 2.58453ZM11.7571 11.9136H11.9332V11.3136H11.7571V11.9136ZM12.2036 11.7436L16.607 2.58453L16.0663 2.32456L11.6629 11.4836L12.2036 11.7436ZM16.3366 2.75454H23.1619V2.15454H16.3366V2.75454ZM22.8975 2.3129L14.6191 17.7689L15.148 18.0522L23.4264 2.59619L22.8975 2.3129ZM14.5835 17.9105V25H15.1835V17.9105H14.5835ZM14.8835 24.7H8.80682V25.3H14.8835V24.7ZM9.10682 25V17.9105H8.50682V25H9.10682ZM9.07127 17.7689L0.792864 2.3129L0.263954 2.59619L8.54236 18.0522L9.07127 17.7689Z" fill="#555555"/>
</svg>
