<svg width="24" height="24" viewBox="0 0 24 24" fill="none" xmlns="http://www.w3.org/2000/svg">
<path d="M12 23.85C5.45543 23.85 0.15 18.5446 0.15 12C0.15 5.45543 5.45543 0.15 12 0.15C18.5446 0.15 23.85 5.45543 23.85 12C23.85 18.5446 18.5446 23.85 12 23.85Z" fill="#9DC3BC" stroke="#555555" stroke-width="0.3"/>
<path d="M0.511364 2.18182H7.11648L11.3778 11.0455H11.5483L15.8097 2.18182H22.4148L14.4034 17.1392V24H8.52273V17.1392L0.511364 2.18182Z" fill="#E6DFCD"/>
<path d="M0.511364 2.18182V1.88182H0.0103576L0.246908 2.32346L0.511364 2.18182ZM7.11648 2.18182L7.38685 2.05183L7.30512 1.88182H7.11648V2.18182ZM11.3778 11.0455L11.1075 11.1754L11.1892 11.3455H11.3778V11.0455ZM11.5483 11.0455V11.3455H11.7369L11.8187 11.1754L11.5483 11.0455ZM15.8097 2.18182V1.88182H15.621L15.5393 2.05183L15.8097 2.18182ZM22.4148 2.18182L22.6792 2.32346L22.9158 1.88182H22.4148V2.18182ZM14.4034 17.1392L14.139 16.9976L14.1034 17.0639V17.1392H14.4034ZM14.4034 24V24.3H14.7034V24H14.4034ZM8.52273 24H8.22273V24.3H8.52273V24ZM8.52273 17.1392H8.82273V17.0639L8.78718 16.9976L8.52273 17.1392ZM0.511364 2.48182H7.11648V1.88182H0.511364V2.48182ZM6.8461 2.31181L11.1075 11.1754L11.6482 10.9155L7.38685 2.05183L6.8461 2.31181ZM11.3778 11.3455H11.5483V10.7455H11.3778V11.3455ZM11.8187 11.1754L16.08 2.31181L15.5393 2.05183L11.2779 10.9155L11.8187 11.1754ZM15.8097 2.48182H22.4148V1.88182H15.8097V2.48182ZM22.1503 2.04017L14.139 16.9976L14.6679 17.2808L22.6792 2.32346L22.1503 2.04017ZM14.1034 17.1392V24H14.7034V17.1392H14.1034ZM14.4034 23.7H8.52273V24.3H14.4034V23.7ZM8.82273 24V17.1392H8.22273V24H8.82273ZM8.78718 16.9976L0.775819 2.04017L0.246908 2.32346L8.25827 17.2808L8.78718 16.9976Z" fill="#555555"/>
</svg>
